<?xml version="1.0" standalone="no"?>
<!DOCTYPE svg PUBLIC "-//W3C//DTD SVG 20010904//EN"
 "http://www.w3.org/TR/2001/REC-SVG-20010904/DTD/svg10.dtd">
<svg version="1.0" xmlns="http://www.w3.org/2000/svg"
 width="1920.000000pt" height="1920.000000pt" viewBox="0 0 1920.000000 1920.000000"
 preserveAspectRatio="xMidYMid meet">

<g transform="translate(0.000000,1920.000000) scale(0.100000,-0.100000)"
fill="#000000" stroke="none">
<path d="M8997 14765 c-653 -89 -1212 -497 -1492 -1087 l-46 -98 -37 16 c-438
192 -887 188 -1297 -11 -427 -207 -726 -590 -827 -1058 -17 -81 -22 -141 -24
-296 l-3 -194 -79 -23 c-559 -162 -960 -589 -1083 -1156 -29 -137 -36 -372
-15 -516 94 -637 547 -1122 1189 -1275 l92 -22 3618 -2 3619 -3 -46 52 c-25
28 -55 71 -68 95 l-23 43 -3530 3 -3530 2 -92 22 c-403 96 -722 340 -900 689
-64 125 -97 218 -123 342 -141 692 289 1373 975 1547 51 13 120 27 154 31 34
4 64 10 67 15 2 5 -3 48 -13 96 -26 132 -23 375 6 513 106 499 486 891 983
1016 140 35 367 44 518 20 170 -27 342 -92 506 -190 32 -20 62 -36 66 -36 3 0
19 37 34 83 203 613 716 1064 1341 1176 381 69 758 12 1103 -165 510 -263 847
-739 931 -1319 6 -38 10 -136 10 -217 0 -87 4 -148 10 -148 5 0 54 13 109 30
162 48 253 62 413 65 143 2 149 3 175 28 37 34 119 82 167 97 22 7 44 16 48
20 14 13 -186 42 -323 47 -115 4 -288 -9 -393 -30 -7 -1 -14 25 -19 77 -73
774 -630 1444 -1380 1660 -251 72 -541 95 -791 61z"/>
<path d="M12833 13132 c-134 -47 -199 -134 -218 -287 -14 -120 -7 -110 -93
-140 -42 -15 -103 -40 -134 -56 -32 -16 -62 -29 -68 -29 -6 0 -37 21 -68 47
-86 70 -153 97 -237 97 -113 0 -144 -20 -337 -211 -195 -194 -213 -223 -212
-343 1 -91 14 -122 94 -229 l61 -80 -27 -53 c-15 -29 -39 -87 -54 -128 l-28
-75 -58 -8 c-175 -24 -248 -59 -310 -150 -48 -70 -56 -126 -52 -374 3 -203 5
-222 26 -268 50 -108 140 -169 275 -186 126 -15 120 -12 141 -71 10 -29 33
-86 52 -127 19 -41 34 -79 34 -85 0 -6 -25 -42 -56 -81 -78 -98 -96 -137 -102
-220 -3 -56 1 -82 19 -130 19 -53 41 -79 183 -223 177 -179 222 -210 324 -219
90 -8 151 14 259 96 l91 70 59 -28 c33 -16 94 -41 136 -56 42 -15 77 -30 77
-34 0 -3 7 -54 15 -113 21 -159 66 -232 177 -288 l61 -30 242 0 c290 0 311 5
396 89 66 66 83 109 100 252 11 86 15 102 33 110 24 10 206 88 221 95 6 2 51
-27 100 -66 102 -80 152 -100 245 -100 110 0 157 30 346 222 181 183 199 213
199 328 0 87 -23 144 -101 242 -35 45 -64 87 -64 95 0 7 11 35 24 61 13 26 33
75 46 109 l22 61 62 7 c184 20 261 51 323 133 55 73 63 118 63 368 0 199 -2
229 -20 277 -45 119 -133 181 -288 203 -54 7 -102 14 -108 14 -6 0 -25 37 -42
83 -17 45 -41 105 -53 134 l-22 52 44 55 c103 131 126 189 117 301 -7 85 -40
132 -217 310 -185 187 -216 205 -339 205 -80 0 -154 -32 -243 -105 l-56 -45
-84 38 c-46 22 -112 49 -146 62 -68 24 -66 21 -78 130 -4 30 -13 76 -22 103
-20 64 -98 148 -165 178 -50 22 -66 24 -283 26 -202 3 -236 1 -282 -15z m504
-198 c37 -24 50 -63 67 -209 9 -76 18 -141 20 -142 2 -2 36 -13 77 -24 98 -27
224 -80 320 -134 43 -25 82 -45 86 -45 5 0 60 41 123 90 178 141 175 141 372
-58 80 -81 149 -158 153 -170 14 -47 -5 -87 -100 -207 -52 -66 -95 -123 -95
-127 0 -5 19 -45 41 -91 51 -101 85 -187 114 -292 l22 -80 161 -20 c158 -20
163 -21 194 -53 l33 -32 0 -221 0 -221 -36 -32 c-34 -32 -42 -34 -155 -46 -65
-7 -139 -15 -163 -19 l-43 -6 -42 -121 c-23 -66 -65 -163 -93 -216 l-51 -95
100 -127 c98 -125 118 -163 110 -215 -4 -26 -218 -253 -286 -302 -71 -53 -95
-44 -270 95 -50 39 -96 75 -102 79 -7 4 -60 -17 -118 -47 -103 -52 -206 -93
-293 -116 -50 -13 -47 -4 -68 -193 -25 -228 -24 -227 -305 -227 -281 0 -277
-4 -305 247 l-18 153 -41 10 c-94 24 -208 68 -316 122 -65 32 -119 53 -125 49
-5 -5 -59 -47 -120 -95 -129 -101 -165 -116 -219 -91 -40 19 -296 282 -309
318 -16 43 3 82 102 206 l100 125 -44 80 c-52 97 -105 226 -130 319 -10 37
-23 67 -29 67 -6 1 -75 9 -153 19 -219 28 -223 33 -223 293 0 194 8 236 50
271 30 26 46 29 223 48 61 7 110 17 112 23 41 139 79 241 126 335 32 63 55
120 52 125 -4 6 -32 43 -63 81 -108 133 -120 154 -120 204 0 45 0 46 153 198
152 152 153 153 198 153 50 0 52 -1 192 -112 l99 -77 41 26 c73 46 221 111
330 144 l105 32 12 101 c24 214 37 245 104 266 48 15 416 2 443 -16z"/>
<path d="M12955 11916 c-252 -48 -462 -213 -569 -448 -47 -102 -68 -203 -67
-328 2 -634 716 -994 1237 -624 146 103 248 255 300 444 24 87 24 278 1 375
-66 269 -296 500 -567 569 -90 23 -249 29 -335 12z m289 -202 c191 -46 346
-193 411 -389 32 -95 36 -232 10 -329 -50 -186 -205 -350 -384 -407 -91 -29
-227 -35 -313 -15 -218 51 -393 226 -444 444 -21 86 -14 222 15 314 28 88 108
207 179 264 154 125 331 165 526 118z"/>
<path d="M7451 11118 c-123 -319 -594 -1547 -598 -1556 -4 -10 19 -12 108 -10
l114 3 85 238 85 237 334 -2 334 -3 90 -237 90 -238 120 0 c99 0 118 2 114 14
-32 83 -623 1528 -633 1549 -15 27 -15 27 -125 27 -104 0 -110 -1 -118 -22z
m257 -547 c72 -191 132 -353 132 -360 0 -8 -72 -11 -265 -11 -146 0 -265 3
-265 7 0 14 255 713 260 713 3 0 65 -157 138 -349z"/>
<path d="M8710 10346 l0 -796 105 0 105 0 0 314 0 314 268 4 c293 5 365 16
478 69 158 75 244 225 244 428 0 180 -82 315 -235 388 -121 57 -178 64 -592
70 l-373 5 0 -796z m783 584 c67 -16 137 -67 166 -119 29 -54 39 -164 21 -240
-15 -65 -73 -131 -139 -160 -74 -31 -163 -41 -403 -41 l-218 0 0 291 0 292
263 -6 c144 -3 283 -11 310 -17z"/>
<path d="M10247 11134 c-4 -4 -7 -362 -7 -796 l0 -789 108 3 107 3 0 790 0
790 -101 3 c-55 1 -103 0 -107 -4z"/>
<path d="M5388 8369 l-3 -352 -40 -12 c-153 -46 -284 -171 -335 -321 -83 -240
25 -502 254 -614 336 -166 726 76 726 450 0 216 -140 409 -346 479 l-59 20 -3
350 -2 351 -95 0 -95 0 -2 -351z m238 -572 c107 -54 168 -155 168 -277 0 -167
-119 -296 -285 -308 -156 -11 -285 84 -325 238 -19 75 -13 124 27 207 35 72
90 124 163 153 72 29 182 23 252 -13z"/>
<path d="M7055 8707 c-3 -7 -4 -131 -3 -277 l3 -265 98 -3 97 -3 0 281 0 280
-95 0 c-68 0 -97 -4 -100 -13z"/>
<path d="M8884 8707 c-2 -7 -3 -109 -2 -227 l3 -215 95 0 95 0 3 228 2 227
-95 0 c-68 0 -97 -4 -101 -13z"/>
<path d="M10840 8440 l0 -280 95 0 95 0 0 280 0 280 -95 0 -95 0 0 -280z"/>
<path d="M12520 8367 l0 -353 -48 -12 c-145 -38 -285 -176 -332 -329 -27 -88
-27 -218 0 -305 65 -210 256 -350 480 -350 284 0 503 219 502 502 0 139 -58
277 -153 367 -49 46 -143 100 -200 114 l-49 13 -2 350 -3 351 -97 3 -98 3 0
-354z m233 -566 c59 -28 119 -89 149 -149 19 -38 23 -63 23 -132 0 -100 -21
-154 -86 -219 -65 -65 -119 -86 -219 -86 -100 0 -154 21 -219 86 -159 160 -98
432 116 514 56 22 177 15 236 -14z"/>
<path d="M8880 7520 l0 -410 100 0 100 0 0 410 0 410 -100 0 -100 0 0 -410z"/>
<path d="M7050 7376 l0 -434 -52 -12 c-102 -23 -215 -87 -299 -170 -63 -63
-85 -93 -122 -171 -54 -112 -67 -169 -67 -291 0 -180 58 -316 190 -448 141
-142 281 -196 480 -187 122 5 205 29 299 84 246 146 366 431 299 713 -5 25
-28 83 -51 130 -75 160 -253 303 -422 341 l-55 12 0 434 0 433 -100 0 -100 0
0 -434z m248 -647 c197 -68 310 -238 300 -454 -3 -82 -8 -101 -41 -168 -88
-177 -285 -282 -472 -250 -266 46 -436 302 -370 558 67 256 335 400 583 314z"/>
<path d="M10840 7377 l0 -434 -55 -12 c-209 -47 -405 -237 -471 -456 -13 -43
-18 -92 -18 -175 0 -99 4 -126 28 -195 69 -201 222 -354 416 -416 83 -27 238
-36 322 -19 220 43 410 208 486 422 34 97 42 262 18 358 -56 224 -215 395
-435 466 l-96 32 -3 431 -2 431 -95 0 -95 0 0 -433z m215 -639 c151 -39 279
-168 320 -323 80 -308 -189 -607 -503 -558 -365 56 -513 504 -253 764 117 117
273 159 436 117z"/>
<path d="M8880 6337 l0 -493 -52 -11 c-198 -42 -384 -183 -477 -362 -59 -114
-83 -211 -82 -340 0 -130 16 -196 78 -321 89 -182 261 -318 467 -370 160 -40
323 -21 485 57 79 38 107 58 180 131 47 48 101 112 119 144 97 166 124 387 68
568 -75 240 -276 431 -513 488 l-73 17 0 493 0 492 -100 0 -100 0 0 -493z
m264 -708 c209 -64 356 -269 356 -493 0 -228 -140 -423 -357 -497 -95 -33
-231 -33 -326 0 -402 137 -485 672 -142 916 140 101 302 126 469 74z"/>
<path d="M8865 5483 c-63 -23 -137 -74 -169 -116 -14 -18 -38 -60 -53 -92 -66
-144 -13 -340 118 -434 143 -104 341 -92 471 28 55 50 96 130 111 214 26 155
-63 317 -213 385 -73 34 -193 41 -265 15z m209 -202 c107 -66 99 -239 -13
-298 -55 -29 -102 -29 -158 -2 -79 38 -118 152 -79 227 20 38 68 81 102 92 41
13 111 4 148 -19z"/>
</g>
</svg>
