<?xml version="1.0" standalone="no"?>
<!DOCTYPE svg PUBLIC "-//W3C//DTD SVG 20010904//EN"
 "http://www.w3.org/TR/2001/REC-SVG-20010904/DTD/svg10.dtd">
<svg version="1.0" xmlns="http://www.w3.org/2000/svg"
 width="225.000000pt" height="225.000000pt" viewBox="0 0 225.000000 225.000000"
 preserveAspectRatio="xMidYMid meet">

<g transform="translate(0.000000,225.000000) scale(0.100000,-0.100000)"
fill="#000000" stroke="none">
<path d="M603 1758 l-113 -113 -45 45 -45 44 -48 -47 -47 -47 95 -95 95 -95
165 165 164 165 -44 45 c-24 25 -49 45 -55 45 -5 0 -61 -51 -122 -112z"/>
<path d="M1060 1690 l0 -70 455 0 455 0 0 70 0 70 -455 0 -455 0 0 -70z"/>
<path d="M603 1198 l-113 -113 -45 45 -45 44 -50 -49 -50 -50 95 -95 95 -95
165 165 165 165 -47 47 c-26 27 -50 48 -53 48 -3 0 -56 -51 -117 -112z"/>
<path d="M1060 1125 l0 -65 455 0 455 0 0 65 0 65 -455 0 -455 0 0 -65z"/>
<path d="M610 635 l-114 -115 -48 47 -47 46 -45 -49 c-25 -27 -45 -51 -46 -54
0 -3 41 -46 90 -95 l90 -90 165 165 165 165 -48 48 -48 47 -114 -115z"/>
<path d="M1060 560 l0 -70 455 0 455 0 0 70 0 70 -455 0 -455 0 0 -70z"/>
</g>
</svg>
